<svg viewBox="0 0 505 505" fill="none" xmlns="http://www.w3.org/2000/svg">
<circle cx="252.5" cy="252.5" r="252.5" fill="#58E887"/>
<ellipse cx="246.5" cy="381.5" rx="125.5" ry="123.5" fill="#C4C4C4"/>
<path d="M201.248 161.315L193.55 193.995V253.527L231.021 294.592L279.272 282.686L302.37 230.944L305.964 166.268L213.557 152.42L201.248 161.315Z" fill="#EFC39C"/>
<path d="M213.43 297.872C213.43 297.872 211.722 335.07 246.641 335.07C281.56 335.07 280.033 297.872 280.033 297.872H213.43Z" fill="#EFC39C"/>
<path d="M334.195 103.649C320.337 95.9492 324.436 118.025 300.313 112.377C276.19 106.729 202.787 81.071 190.983 142.663C183.213 146.079 176.682 151.801 172.274 159.054C167.866 166.308 165.794 174.741 166.341 183.211C167.878 213.497 185.859 216.576 185.859 216.576C185.859 216.576 190.473 231.459 183.29 252.51C176.107 273.561 219.224 295.629 222.303 311.022C225.383 326.415 246.739 327.45 246.739 327.45C246.739 327.45 268.102 326.423 271.181 311.022C274.26 295.622 317.377 273.551 310.194 252.51C303.011 231.469 307.625 216.576 307.625 216.576C307.625 216.576 325.59 213.497 327.144 183.211C327.612 176.151 326.288 169.088 323.296 162.677C342.525 142.067 344.682 109.478 334.195 103.649ZM296.826 228.382C296.143 241.389 287.248 238.651 276.978 263.157C266.709 287.663 253.346 286.399 253.346 273.783C253.447 272.888 253.346 271.982 253.049 271.132C252.752 270.283 252.266 269.511 251.629 268.874C250.992 268.238 250.22 267.754 249.37 267.458C248.52 267.161 247.614 267.061 246.719 267.164C246.719 267.164 240.422 265.795 239.739 273.097C238.448 286.873 226.732 287.668 216.462 263.155C206.193 238.642 197.305 241.387 196.622 228.38C195.938 215.373 195.938 194.846 206.884 183.894C209.028 181.233 210.362 178.011 210.726 174.613C211.09 171.215 210.468 167.783 208.936 164.729C208.936 164.729 210.643 161.313 213.383 161.313C215.974 161.313 254.275 186.443 292.745 179.124C301.16 191.304 297.473 216.239 296.826 228.382Z" fill="url(#paint0_linear)"/>
<path d="M247.29 368.686H121.662C120.813 368.687 119.975 368.881 119.211 369.254C118.448 369.626 117.78 370.168 117.257 370.837C116.735 371.507 116.371 372.286 116.195 373.117C116.018 373.948 116.033 374.808 116.238 375.632L162.5 486.5H346L378.327 375.632C378.532 374.808 378.547 373.948 378.371 373.117C378.194 372.286 377.831 371.507 377.308 370.837C376.785 370.168 376.117 369.626 375.354 369.254C374.591 368.881 373.753 368.687 372.903 368.686H247.29Z" fill="url(#paint1_linear)"/>
<path d="M190.012 212.416C190.012 212.416 186.352 198.508 173.36 202.829C160.368 207.15 163.32 223.363 173.36 230.666C183.4 237.968 183.168 244.126 188.19 242.075C193.211 240.023 190.012 212.416 190.012 212.416Z" fill="#EFC39C"/>
<path d="M303.458 212.416C303.458 212.416 307.103 198.508 320.11 202.829C333.117 207.15 330.15 223.363 320.11 230.666C310.07 237.968 310.302 244.126 305.281 242.075C300.259 240.023 303.458 212.416 303.458 212.416Z" fill="#EFC39C"/>
<defs>
<linearGradient id="paint0_linear" x1="237.319" y1="93.4329" x2="324.024" y2="295.448" gradientUnits="userSpaceOnUse">
<stop stop-color="#D5BE26"/>
<stop offset="1" stop-color="#918D15"/>
</linearGradient>
<linearGradient id="paint1_linear" x1="247.545" y1="367.331" x2="246.967" y2="489.553" gradientUnits="userSpaceOnUse">
<stop stop-color="#E6E6E6"/>
<stop offset="1" stop-color="#D7BFFF"/>
</linearGradient>
</defs>
</svg>
