<svg width="895" height="739" viewBox="0 0 895 739" fill="none" xmlns="http://www.w3.org/2000/svg">
<path d="M237.018 89.336C282.059 36.028 350.489 3.44399 423.828 0.635993C569.787 -4.94801 548.628 86.616 710.528 24.086C872.428 -38.444 925.778 118.677 878.055 211.521C830.332 304.365 804.681 360.75 867.571 490.553C930.461 620.356 752.968 752.122 638.059 737.605C523.15 723.088 473.088 604.725 225.052 696.289C-22.9841 787.853 -45.7301 516.142 60.0789 427.558C109.979 385.778 156.57 335.529 175.715 272.596C185.2 241.423 182.515 208.532 191.03 176.956C199.724 144.721 215.427 114.802 237.018 89.336V89.336Z" fill="#6C97C1"/>
<path d="M666.409 448.045C616.144 324.299 523.641 328.902 523.641 328.902L474.594 315.27L425.547 328.902C425.547 328.902 333.054 324.302 282.779 448.045C232.504 571.788 332.887 614.333 373.579 622.065C414.271 629.797 474.593 622.065 474.593 622.065C474.593 622.065 534.932 629.797 575.616 622.065C616.3 614.333 716.684 571.79 666.409 448.045Z" fill="#393535"/>
<path d="M417.485 193.676L407.817 234.71V309.474L454.867 361.036L515.452 346.085L544.452 281.115L548.967 199.905L432.953 182.505L417.485 193.676Z" fill="#EFC39C"/>
<path d="M636.972 450.614C635.625 448.616 633.804 446.982 631.671 445.86C629.539 444.737 627.162 444.159 624.752 444.179H324.435C322.025 444.16 319.648 444.738 317.516 445.861C315.384 446.984 313.563 448.617 312.215 450.614C311.043 452.389 310.3 454.413 310.045 456.524C309.789 458.636 310.028 460.778 310.742 462.782L474.593 454.06L638.453 462.782C639.167 460.778 639.405 458.635 639.148 456.523C638.891 454.411 638.146 452.388 636.972 450.614Z" fill="url(#paint0_linear)"/>
<path d="M432.779 365.142C432.779 365.142 430.649 411.849 474.479 411.849C518.309 411.849 516.408 365.142 516.408 365.142H432.779Z" fill="#EFC39C"/>
<path d="M584.418 121.272C567.018 111.603 572.171 139.322 541.875 132.23C511.579 125.138 419.418 92.913 404.594 170.258C404.594 170.258 371.72 183.144 373.658 221.173C375.596 259.202 398.151 263.067 398.151 263.067C398.151 263.067 403.946 281.757 394.925 308.187C385.904 334.617 440.045 362.328 443.911 381.657C447.777 400.986 474.593 402.284 474.593 402.284C474.593 402.284 501.418 400.995 505.284 381.657C509.15 362.319 563.291 334.608 554.27 308.187C545.249 281.766 551.044 263.067 551.044 263.067C551.044 263.067 573.6 259.201 575.537 221.173C576.124 212.309 574.463 203.441 570.707 195.391C594.876 169.504 597.582 128.592 584.418 121.272ZM537.509 277.891C536.65 294.223 525.482 290.791 512.586 321.556C499.69 352.321 482.912 350.739 482.912 334.898C482.912 325.728 474.593 326.588 474.593 326.588C474.593 326.588 466.686 324.87 465.827 334.039C464.205 351.339 449.495 352.339 436.6 321.556C423.705 290.773 412.545 294.223 411.682 277.891C410.819 261.559 410.823 235.791 424.568 222.032C430.582 215.159 430.582 205.709 427.145 197.969C427.145 197.969 429.293 193.669 432.729 193.669C435.981 193.669 484.073 225.219 532.376 216.041C542.936 231.333 538.307 262.655 537.509 277.891Z" fill="#C4A528"/>
<path d="M475.295 454.059H317.554C316.487 454.059 315.435 454.303 314.476 454.771C313.518 455.239 312.678 455.919 312.022 456.76C311.365 457.601 310.909 458.58 310.687 459.623C310.466 460.667 310.485 461.747 310.743 462.782L347.229 608.749H603.353L639.839 462.783C640.097 461.748 640.116 460.668 639.895 459.624C639.673 458.581 639.217 457.602 638.56 456.761C637.904 455.92 637.065 455.24 636.106 454.772C635.147 454.304 634.095 454.06 633.028 454.06L475.295 454.059Z" fill="#E6E6E6"/>
<path d="M347.232 608.746H603.35V625.625C603.35 626.163 603.136 626.678 602.756 627.058C602.376 627.438 601.861 627.652 601.323 627.652H349.259C348.721 627.652 348.206 627.438 347.826 627.058C347.445 626.678 347.232 626.163 347.232 625.625V608.746Z" fill="url(#paint1_linear)"/>
<path d="M830.62 581.345C830.471 573.666 830.541 565.969 830.585 558.272C830.593 557.085 830.367 555.908 829.919 554.81C829.471 553.711 828.81 552.711 827.974 551.869C827.138 551.026 826.144 550.358 825.048 549.901C823.953 549.444 822.778 549.209 821.591 549.208H723.435C718.087 549.208 712.958 551.332 709.177 555.113C705.395 558.894 703.27 564.022 703.269 569.37V571.37C703.269 574.018 703.79 576.64 704.803 579.086C705.817 581.533 707.302 583.755 709.174 585.628C711.047 587.5 713.269 588.985 715.716 589.998C718.162 591.011 720.784 591.532 723.432 591.532H731.409C732.026 597.87 733.799 604.042 736.642 609.74C738.707 613.643 741.604 617.046 745.128 619.707C749.266 622.828 753.719 624.152 758.728 625.282C768.409 627.433 778.356 628.136 788.244 627.368C802.182 626.368 817.83 623.239 824.913 609.739C829.369 601.254 830.804 590.839 830.62 581.345ZM712.932 571.369V569.369C712.938 566.586 714.046 563.918 716.014 561.95C717.981 559.983 720.649 558.875 723.432 558.869H730.969C731.022 566.369 731.074 573.869 730.934 581.346V581.881H723.434C720.649 581.876 717.979 580.766 716.01 578.796C714.042 576.825 712.935 574.154 712.932 571.369Z" fill="url(#paint2_linear)"/>
<rect x="745.324" y="447.256" width="87.663" height="105.196"/>
<path d="M71.0238 510.887H184.224C184.55 510.887 184.863 511.017 185.094 511.247C185.324 511.478 185.454 511.791 185.454 512.117V541.887C185.454 542.213 185.324 542.526 185.094 542.757C184.863 542.987 184.55 543.117 184.224 543.117H70.0288C69.7026 543.117 69.3898 542.987 69.1591 542.757C68.9284 542.526 68.7988 542.213 68.7988 541.887V513.112C68.7988 512.522 69.0332 511.956 69.4505 511.539C69.8678 511.121 70.4337 510.887 71.0238 510.887V510.887Z" fill="#C1F4EE"/>
<path d="M60.26 543.113H215.909C216.55 543.113 217.165 543.368 217.619 543.821C218.072 544.275 218.327 544.89 218.327 545.531V585.813C218.327 586.455 218.072 587.07 217.619 587.523C217.165 587.977 216.55 588.232 215.908 588.232H60.261C59.6195 588.232 59.0042 587.977 58.5505 587.523C58.0969 587.07 57.842 586.455 57.842 585.813V545.531C57.842 544.89 58.0968 544.275 58.5503 543.821C59.0037 543.368 59.6187 543.113 60.26 543.113V543.113Z" fill="#C1F4EE"/>
<path d="M39.7949 588.229H236.195C236.754 588.229 237.29 588.451 237.686 588.846C238.081 589.242 238.303 589.778 238.303 590.337V625.437C238.303 625.996 238.081 626.532 237.686 626.928C237.29 627.323 236.754 627.545 236.195 627.545H39.7949V588.229Z" fill="#C1F4EE"/>
<path d="M189.61 513.538C189.61 513.19 189.542 512.846 189.409 512.524C189.276 512.203 189.081 511.911 188.835 511.665C188.589 511.419 188.297 511.225 187.976 511.092C187.654 510.959 187.31 510.891 186.962 510.891H71.448C71.1003 510.891 70.756 510.959 70.4347 511.092C70.1135 511.225 69.8216 511.42 69.5757 511.666C69.3299 511.912 69.1349 512.203 69.002 512.525C68.869 512.846 68.8008 513.19 68.801 513.538V540.459C68.8 541.162 69.0782 541.837 69.5746 542.335C70.071 542.833 70.7448 543.114 71.448 543.115H186.962C187.665 543.114 188.339 542.833 188.836 542.335C189.332 541.837 189.611 541.162 189.61 540.459C189.609 539.757 189.33 539.084 188.834 538.587C188.337 538.091 187.664 537.812 186.962 537.811H73.307V516.186H186.962C187.31 516.186 187.654 516.118 187.976 515.985C188.297 515.852 188.589 515.657 188.835 515.411C189.081 515.165 189.276 514.873 189.409 514.552C189.542 514.23 189.61 513.886 189.61 513.538Z" fill="url(#paint3_linear)"/>
<path d="M222.195 546.5V545.316C222.195 544.733 221.963 544.173 221.551 543.76C221.138 543.348 220.578 543.116 219.995 543.116H62.2669C61.6867 543.116 61.1121 543.23 60.576 543.452C60.04 543.674 59.5529 543.999 59.1426 544.41C58.7323 544.82 58.4069 545.307 58.1849 545.843C57.9629 546.379 57.8487 546.954 57.8489 547.534V583.809C57.8499 584.98 58.3157 586.104 59.1441 586.932C59.9724 587.76 61.0955 588.226 62.2669 588.227H219.994C220.577 588.227 221.137 587.995 221.55 587.583C221.962 587.17 222.194 586.61 222.194 586.027V584.844C222.194 584.261 221.962 583.701 221.55 583.288C221.137 582.876 220.577 582.644 219.994 582.644H62.3589V548.7H219.994C220.283 548.7 220.569 548.643 220.836 548.533C221.103 548.422 221.346 548.26 221.55 548.056C221.755 547.852 221.917 547.609 222.027 547.342C222.138 547.075 222.195 546.789 222.195 546.5Z" fill="url(#paint4_linear)"/>
<path d="M232.652 588.227H38.9169C38.6745 588.227 38.4345 588.275 38.2106 588.368C37.9868 588.462 37.7836 588.598 37.6126 588.77C37.4415 588.942 37.3061 589.146 37.214 589.37C37.1219 589.594 37.075 589.835 37.0759 590.077V591.97C37.0759 592.458 37.2699 592.926 37.6152 593.272C37.9604 593.617 38.4287 593.811 38.9169 593.811H232.652V621.96H38.9169C38.4287 621.96 37.9604 622.154 37.6152 622.499C37.2699 622.844 37.0759 623.313 37.0759 623.801V625.701C37.0759 626.189 37.2699 626.657 37.6152 627.003C37.9604 627.348 38.4287 627.542 38.9169 627.542H233.424C234.065 627.542 234.701 627.417 235.293 627.171C235.886 626.926 236.424 626.566 236.878 626.113C237.331 625.659 237.691 625.121 237.936 624.528C238.182 623.936 238.307 623.3 238.307 622.659V593.119C238.308 592.477 238.182 591.841 237.937 591.248C237.692 590.655 237.333 590.116 236.879 589.661C236.426 589.207 235.887 588.846 235.294 588.6C234.701 588.354 234.066 588.227 233.424 588.227H232.652Z" fill="#6C97C1"/>
<path d="M403.376 257.843C403.376 257.843 398.791 240.372 382.468 245.807C366.145 251.242 369.862 271.589 382.468 280.758C395.074 289.927 394.785 297.658 401.088 295.082C407.391 292.506 403.376 257.843 403.376 257.843Z" fill="#EFC39C"/>
<path d="M545.821 257.843C545.821 257.843 550.397 240.372 566.729 245.807C583.061 251.242 579.335 271.589 566.729 280.758C554.123 289.927 554.412 297.658 548.109 295.082C541.806 292.506 545.821 257.843 545.821 257.843Z" fill="#EFC39C"/>
<path d="M730.594 319.338C730.572 323.583 729.292 327.726 726.918 331.245C724.543 334.763 721.18 337.5 717.251 339.109C713.323 340.718 709.006 341.127 704.846 340.285C700.685 339.443 696.867 337.388 693.873 334.378C690.88 331.369 688.845 327.54 688.025 323.375C687.205 319.21 687.637 314.895 689.267 310.976C690.896 307.056 693.651 303.707 697.182 301.351C700.713 298.995 704.863 297.738 709.108 297.738C711.937 297.745 714.737 298.31 717.348 299.4C719.959 300.489 722.329 302.082 724.324 304.088C726.32 306.094 727.9 308.473 728.976 311.089C730.052 313.706 730.601 316.509 730.594 319.338Z" fill="#FEFFBE"/>
<path d="M712.258 24.391H705.956V262.368H712.258V24.391Z" fill="#FEFFBE"/>
<path d="M761.461 319.337C762.205 319.334 762.941 319.174 763.619 318.866C764.297 318.558 764.902 318.11 765.394 317.551C765.886 316.992 766.254 316.336 766.474 315.624C766.693 314.913 766.759 314.163 766.668 313.424C764.978 299.347 758.187 286.377 747.58 276.968C736.974 267.559 723.287 262.363 709.108 262.363C694.93 262.363 681.243 267.559 670.637 276.968C660.03 286.377 653.239 299.347 651.549 313.424C651.456 314.162 651.52 314.912 651.739 315.624C651.957 316.335 652.324 316.993 652.816 317.552C653.307 318.111 653.912 318.559 654.59 318.867C655.267 319.174 656.003 319.335 656.747 319.337H761.461Z" fill="url(#paint5_linear)"/>
<defs>
<linearGradient id="paint0_linear" x1="476.243" y1="419.454" x2="476.239" y2="452.885" gradientUnits="userSpaceOnUse">
<stop stop-color="#E6E6E6"/>
<stop offset="1" stop-color="#D7BFFF"/>
</linearGradient>
<linearGradient id="paint1_linear" x1="476.828" y1="574.318" x2="476.816" y2="623.399" gradientUnits="userSpaceOnUse">
<stop stop-color="#E6E6E6"/>
<stop offset="1" stop-color="#A48BFE"/>
</linearGradient>
<linearGradient id="paint2_linear" x1="766.188" y1="549.6" x2="768.461" y2="666.031" gradientUnits="userSpaceOnUse">
<stop stop-color="#E6E6E6"/>
<stop offset="1" stop-color="#D7BFFF"/>
</linearGradient>
<linearGradient id="paint3_linear" x1="128.239" y1="506.863" x2="128.454" y2="568.066" gradientUnits="userSpaceOnUse">
<stop stop-color="#FFA12A"/>
<stop offset="1" stop-color="#FF157D"/>
</linearGradient>
<linearGradient id="paint4_linear" x1="143.144" y1="588.949" x2="142.649" y2="536.743" gradientUnits="userSpaceOnUse">
<stop stop-color="#08BF00"/>
<stop offset="1" stop-color="#76D619"/>
</linearGradient>
<linearGradient id="paint5_linear" x1="709.684" y1="319.565" x2="701.555" y2="-28.7903" gradientUnits="userSpaceOnUse">
<stop stop-color="#E6E6E6"/>
<stop offset="0.376" stop-color="#D7BFFF"/>
</linearGradient>
</defs>
</svg>
