<svg width="512" height="512" viewBox="0 0 435 138" fill="none" xmlns="http://www.w3.org/2000/svg">
<path d="M162.775 0.187029C173.312 0.187029 182.698 2.40982 190.93 6.8554C199.163 11.1363 205.666 17.6401 210.441 26.3666C215.216 35.0931 217.604 45.7131 217.604 58.2265V138H195.376V61.4372C195.376 47.9358 192 37.6452 185.25 30.5652C178.664 23.3205 169.69 19.6982 158.329 19.6982C146.639 19.6982 137.336 23.4852 130.421 31.0591C123.506 38.4684 120.048 49.2531 120.048 63.4131V138H97.82V61.4372C97.82 47.9358 94.4446 37.6452 87.6939 30.5652C81.1079 23.3205 72.1344 19.6982 60.7735 19.6982C49.0832 19.6982 39.7804 23.4852 32.8651 31.0591C25.9498 38.4684 22.4921 49.2531 22.4921 63.4131V138H0.0172029V2.65679H22.4921V22.168C26.9377 15.088 32.8651 9.65447 40.2744 5.86749C47.8483 2.08052 56.1632 0.187029 65.219 0.187029C76.58 0.187029 86.6237 2.73912 95.3502 7.84331C104.077 12.9475 110.58 20.4391 114.861 30.3182C118.648 20.7684 124.905 13.3591 133.632 8.09028C142.358 2.82145 152.072 0.187029 162.775 0.187029Z" fill="#85EEA7"/>
<path d="M434.764 2.65679L392.531 138H369.315L336.714 30.5652L304.113 138H280.897L238.417 2.65679H261.386L292.505 116.266L326.094 2.65679H349.063L381.911 116.513L412.536 2.65679H434.764Z" fill="#F4F5F8"/>
</svg>
