<svg width="122" height="27" viewBox="0 0 122 27" fill="none" xmlns="http://www.w3.org/2000/svg">
<path d="M23.248 9.956C24.016 9.956 24.7 10.118 25.3 10.442C25.9 10.754 26.374 11.228 26.722 11.864C27.07 12.5 27.244 13.274 27.244 14.186V20H25.624V14.42C25.624 13.436 25.378 12.686 24.886 12.17C24.406 11.642 23.752 11.378 22.924 11.378C22.072 11.378 21.394 11.654 20.89 12.206C20.386 12.746 20.134 13.532 20.134 14.564V20H18.514V14.42C18.514 13.436 18.268 12.686 17.776 12.17C17.296 11.642 16.642 11.378 15.814 11.378C14.962 11.378 14.284 11.654 13.78 12.206C13.276 12.746 13.024 13.532 13.024 14.564V20H11.386V10.136H13.024V11.558C13.348 11.042 13.78 10.646 14.32 10.37C14.872 10.094 15.478 9.956 16.138 9.956C16.966 9.956 17.698 10.142 18.334 10.514C18.97 10.886 19.444 11.432 19.756 12.152C20.032 11.456 20.488 10.916 21.124 10.532C21.76 10.148 22.468 9.956 23.248 9.956ZM29.3189 15.032C29.3189 14.024 29.5229 13.142 29.9309 12.386C30.3389 11.618 30.8969 11.024 31.6049 10.604C32.3249 10.184 33.1229 9.974 33.9989 9.974C34.8629 9.974 35.6129 10.16 36.2489 10.532C36.8849 10.904 37.3589 11.372 37.6709 11.936V10.136H39.3269V20H37.6709V18.164C37.3469 18.74 36.8609 19.22 36.2129 19.604C35.5769 19.976 34.8329 20.162 33.9809 20.162C33.1049 20.162 32.3129 19.946 31.6049 19.514C30.8969 19.082 30.3389 18.476 29.9309 17.696C29.5229 16.916 29.3189 16.028 29.3189 15.032ZM37.6709 15.05C37.6709 14.306 37.5209 13.658 37.2209 13.106C36.9209 12.554 36.5129 12.134 35.9969 11.846C35.4929 11.546 34.9349 11.396 34.3229 11.396C33.7109 11.396 33.1529 11.54 32.6489 11.828C32.1449 12.116 31.7429 12.536 31.4429 13.088C31.1429 13.64 30.9929 14.288 30.9929 15.032C30.9929 15.788 31.1429 16.448 31.4429 17.012C31.7429 17.564 32.1449 17.99 32.6489 18.29C33.1529 18.578 33.7109 18.722 34.3229 18.722C34.9349 18.722 35.4929 18.578 35.9969 18.29C36.5129 17.99 36.9209 17.564 37.2209 17.012C37.5209 16.448 37.6709 15.794 37.6709 15.05ZM47.243 20L44.903 16.328L42.653 20H40.943L44.129 15.104L40.943 10.136H42.797L45.137 13.79L47.369 10.136H49.079L45.911 15.014L49.097 20H47.243Z" fill="#58E887"/>
<path d="M63.8483 10.136L60.7703 20H59.0783L56.7023 12.17L54.3263 20H52.6343L49.5383 10.136H51.2123L53.4803 18.416L55.9283 10.136H57.6023L59.9963 18.434L62.2283 10.136H63.8483ZM74.4739 14.69C74.4739 15.002 74.4559 15.332 74.4199 15.68H66.5359C66.5959 16.652 66.9259 17.414 67.5259 17.966C68.1379 18.506 68.8759 18.776 69.7399 18.776C70.4479 18.776 71.0359 18.614 71.5039 18.29C71.9839 17.954 72.3199 17.51 72.5119 16.958H74.2759C74.0119 17.906 73.4839 18.68 72.6919 19.28C71.8999 19.868 70.9159 20.162 69.7399 20.162C68.8039 20.162 67.9639 19.952 67.2199 19.532C66.4879 19.112 65.9119 18.518 65.4919 17.75C65.0719 16.97 64.8619 16.07 64.8619 15.05C64.8619 14.03 65.0659 13.136 65.4739 12.368C65.8819 11.6 66.4519 11.012 67.1839 10.604C67.9279 10.184 68.7799 9.974 69.7399 9.974C70.6759 9.974 71.5039 10.178 72.2239 10.586C72.9439 10.994 73.4959 11.558 73.8799 12.278C74.2759 12.986 74.4739 13.79 74.4739 14.69ZM72.7819 14.348C72.7819 13.724 72.6439 13.19 72.3679 12.746C72.0919 12.29 71.7139 11.948 71.2339 11.72C70.7659 11.48 70.2439 11.36 69.6679 11.36C68.8399 11.36 68.1319 11.624 67.5439 12.152C66.9679 12.68 66.6379 13.412 66.5539 14.348H72.7819ZM78.274 11.738C78.562 11.174 78.97 10.736 79.498 10.424C80.038 10.112 80.692 9.956 81.46 9.956V11.648H81.028C79.192 11.648 78.274 12.644 78.274 14.636V20H76.636V10.136H78.274V11.738ZM84.9888 11.954C85.3128 11.39 85.7928 10.922 86.4288 10.55C87.0768 10.166 87.8268 9.974 88.6788 9.974C89.5548 9.974 90.3468 10.184 91.0548 10.604C91.7748 11.024 92.3388 11.618 92.7468 12.386C93.1548 13.142 93.3588 14.024 93.3588 15.032C93.3588 16.028 93.1548 16.916 92.7468 17.696C92.3388 18.476 91.7748 19.082 91.0548 19.514C90.3468 19.946 89.5548 20.162 88.6788 20.162C87.8388 20.162 87.0948 19.976 86.4468 19.604C85.8108 19.22 85.3248 18.746 84.9888 18.182V24.68H83.3508V10.136H84.9888V11.954ZM91.6848 15.032C91.6848 14.288 91.5348 13.64 91.2348 13.088C90.9348 12.536 90.5268 12.116 90.0108 11.828C89.5068 11.54 88.9488 11.396 88.3368 11.396C87.7368 11.396 87.1788 11.546 86.6628 11.846C86.1588 12.134 85.7508 12.56 85.4388 13.124C85.1388 13.676 84.9888 14.318 84.9888 15.05C84.9888 15.794 85.1388 16.448 85.4388 17.012C85.7508 17.564 86.1588 17.99 86.6628 18.29C87.1788 18.578 87.7368 18.722 88.3368 18.722C88.9488 18.722 89.5068 18.578 90.0108 18.29C90.5268 17.99 90.9348 17.564 91.2348 17.012C91.5348 16.448 91.6848 15.788 91.6848 15.032ZM104.515 14.69C104.515 15.002 104.497 15.332 104.461 15.68H96.5769C96.6369 16.652 96.9669 17.414 97.5669 17.966C98.1789 18.506 98.9169 18.776 99.7809 18.776C100.489 18.776 101.077 18.614 101.545 18.29C102.025 17.954 102.361 17.51 102.553 16.958H104.317C104.053 17.906 103.525 18.68 102.733 19.28C101.941 19.868 100.957 20.162 99.7809 20.162C98.8449 20.162 98.0049 19.952 97.2609 19.532C96.5289 19.112 95.9529 18.518 95.5329 17.75C95.1129 16.97 94.9029 16.07 94.9029 15.05C94.9029 14.03 95.1069 13.136 95.5149 12.368C95.9229 11.6 96.4929 11.012 97.2249 10.604C97.9689 10.184 98.8209 9.974 99.7809 9.974C100.717 9.974 101.545 10.178 102.265 10.586C102.985 10.994 103.537 11.558 103.921 12.278C104.317 12.986 104.515 13.79 104.515 14.69ZM102.823 14.348C102.823 13.724 102.685 13.19 102.409 12.746C102.133 12.29 101.755 11.948 101.275 11.72C100.807 11.48 100.285 11.36 99.7089 11.36C98.8809 11.36 98.1729 11.624 97.5849 12.152C97.0089 12.68 96.6789 13.412 96.5949 14.348H102.823ZM108.315 11.738C108.603 11.174 109.011 10.736 109.539 10.424C110.079 10.112 110.733 9.956 111.501 9.956V11.648H111.069C109.233 11.648 108.315 12.644 108.315 14.636V20H106.677V10.136H108.315V11.738ZM116.884 20.162C116.128 20.162 115.45 20.036 114.85 19.784C114.25 19.52 113.776 19.16 113.428 18.704C113.08 18.236 112.888 17.702 112.852 17.102H114.544C114.592 17.594 114.82 17.996 115.228 18.308C115.648 18.62 116.194 18.776 116.866 18.776C117.49 18.776 117.982 18.638 118.342 18.362C118.702 18.086 118.882 17.738 118.882 17.318C118.882 16.886 118.69 16.568 118.306 16.364C117.922 16.148 117.328 15.938 116.524 15.734C115.792 15.542 115.192 15.35 114.724 15.158C114.268 14.954 113.872 14.66 113.536 14.276C113.212 13.88 113.05 13.364 113.05 12.728C113.05 12.224 113.2 11.762 113.5 11.342C113.8 10.922 114.226 10.592 114.778 10.352C115.33 10.1 115.96 9.974 116.668 9.974C117.76 9.974 118.642 10.25 119.314 10.802C119.986 11.354 120.346 12.11 120.394 13.07H118.756C118.72 12.554 118.51 12.14 118.126 11.828C117.754 11.516 117.25 11.36 116.614 11.36C116.026 11.36 115.558 11.486 115.21 11.738C114.862 11.99 114.688 12.32 114.688 12.728C114.688 13.052 114.79 13.322 114.994 13.538C115.21 13.742 115.474 13.91 115.786 14.042C116.11 14.162 116.554 14.3 117.118 14.456C117.826 14.648 118.402 14.84 118.846 15.032C119.29 15.212 119.668 15.488 119.98 15.86C120.304 16.232 120.472 16.718 120.484 17.318C120.484 17.858 120.334 18.344 120.034 18.776C119.734 19.208 119.308 19.55 118.756 19.802C118.216 20.042 117.592 20.162 116.884 20.162Z" fill="#FCFFF5"/>
<path d="M1.67871 20.0684C1.48535 20.0684 1.38867 19.8809 1.38867 19.5059C1.38867 19.125 1.64648 18.7441 2.16211 18.3633C2.47852 18.1289 3.25488 17.6338 4.49121 16.8779C5.7334 16.1162 6.35449 15.7266 6.35449 15.709C6.35449 15.6914 5.63086 15.2402 4.18359 14.3555C2.74219 13.4648 2.00098 13.0049 1.95996 12.9756C1.55566 12.6592 1.35352 12.3164 1.35352 11.9473C1.35352 11.5781 1.4707 11.3936 1.70508 11.3936C1.83984 11.3936 2.05078 11.4814 2.33789 11.6572C2.625 11.8271 3.09668 12.1025 3.75293 12.4834C4.40918 12.8643 4.81348 13.1016 4.96582 13.1953L6.20508 13.9072C6.85547 14.2822 7.30371 14.5518 7.5498 14.7158C7.97754 14.9971 8.19141 15.3076 8.19141 15.6475C8.19141 15.9814 7.98633 16.2832 7.57617 16.5527C3.99609 18.8965 2.03027 20.0684 1.67871 20.0684Z" fill="#FCFFF5"/>
<path d="M11 23.75C11 23.3358 11.3358 23 11.75 23H18.25C18.6642 23 19 23.3358 19 23.75V23.75C19 24.1642 18.6642 24.5 18.25 24.5H11.75C11.3358 24.5 11 24.1642 11 23.75V23.75Z" fill="#FCFFF5"/>
</svg>
