<svg width="422" height="967" viewBox="0 0 422 967" fill="none" xmlns="http://www.w3.org/2000/svg">
<path d="M228.117 658.12L227.939 658.168L227.757 658.121L227.754 658.213L203.108 664.16C203.108 664.16 139.491 710.584 183.609 828.942C218.847 923.485 225.937 942.503 227.367 946.329L227.365 947.296C227.365 947.296 227.365 947.296 227.546 946.812L227.727 947.293L227.733 946.33C229.166 942.505 236.31 923.506 271.812 829.06C316.237 710.819 252.749 664.225 252.749 664.225L228.117 658.211L228.117 658.12Z" fill="#64FFDA"/>
<path d="M228.07 668.514L227.927 668.541L227.778 668.518L227.779 668.565L207.992 672.433C207.992 672.433 156.923 702.575 192.377 779.482C220.69 840.919 226.387 853.276 227.531 855.76L227.533 856.389L227.678 856.072C227.821 856.386 227.826 856.389 227.826 856.389L227.824 855.76C228.98 853.276 234.714 840.936 263.184 779.575C298.844 702.768 247.854 672.479 247.854 672.479L228.075 668.567L228.07 668.514Z" fill="white"/>
<path d="M228.029 674.727L228.022 674.701L227.915 674.715L227.8 674.698L227.8 674.73L212.38 676.69C212.38 676.69 172.611 692.059 200.257 731.32C222.332 762.677 226.777 768.985 227.671 770.254L227.667 770.576L227.782 770.415L227.891 770.572L227.895 770.26C228.795 768.983 233.253 762.692 255.417 731.395C283.173 692.205 243.436 676.73 243.436 676.73L228.029 674.727Z" fill="#64FFDA"/>
<g filter="url(#filter0_d)">
<path d="M290.917 610.014C290.917 610.014 322.539 603.938 354.002 693.291C462.277 531.898 305.402 456.064 305.402 456.064C305.402 456.064 283.897 524.354 290.917 610.014Z" fill="#85A7DF"/>
</g>
<path d="M177.183 681.309L277.621 681.447L297.599 606.651L158.397 617.249L177.183 681.309Z" fill="#85EEA7"/>
<path d="M207.765 681.354L226.295 681.378L227.088 612.018L201.054 614.002L207.765 681.354Z" fill="#DAD9F2"/>
<path d="M235.832 681.391L244.802 681.402L244.889 610.668L235.914 611.345L235.832 681.391Z" fill="#DAD9F2"/>
<path d="M157.994 610.006C156.909 609.992 155.864 610.41 155.087 611.167C154.31 611.924 153.865 612.958 153.851 614.043L153.821 634.768C153.833 635.853 154.275 636.89 155.051 637.649C155.826 638.409 156.871 638.831 157.956 638.822L298.142 639.009C298.679 639.016 299.213 638.917 299.712 638.718C300.211 638.519 300.665 638.223 301.05 637.848C301.435 637.474 301.742 637.027 301.954 636.533C302.166 636.039 302.279 635.509 302.286 634.971L302.314 614.243C302.301 613.158 301.858 612.123 301.083 611.364C300.309 610.605 299.264 610.183 298.18 610.192L157.994 610.006Z" fill="#85EEA7"/>
<path d="M150.43 625.056L306.288 625.269C306.288 625.269 415.399 300.827 227.762 8.16141C227.762 8.16141 38.6336 292.456 150.43 625.056Z" fill="#85EEA7"/>
<path d="M162.261 145.866C193.807 140.286 245.246 134.511 294.557 143.633C277.425 96.1213 255.021 50.6803 227.763 8.16125C227.763 8.16125 193.127 60.2282 162.261 145.866Z" fill="#85A7DF"/>
<path d="M150.43 625.056L306.288 625.269C306.288 625.269 312.113 607.938 318.755 577.693L136.349 577.451C140.386 593.191 145.08 609.059 150.43 625.056Z" fill="#85A7DF"/>
<g style="mix-blend-mode:multiply">
<path d="M245.808 625.186L306.288 625.269C306.288 625.269 412.867 308.323 234.17 18.3695C342.653 313.216 245.808 625.186 245.808 625.186Z" fill="#C0C0C0"/>
</g>
<path d="M166.303 154.239C166.301 154.919 166.5 155.584 166.876 156.15C167.252 156.716 167.787 157.158 168.414 157.419C169.041 157.681 169.732 157.751 170.399 157.621C171.065 157.49 171.678 157.164 172.16 156.685C172.642 156.206 172.971 155.595 173.105 154.929C173.239 154.263 173.173 153.572 172.915 152.944C172.657 152.315 172.218 151.777 171.654 151.399C171.09 151.02 170.426 150.816 169.747 150.815C168.836 150.814 167.963 151.174 167.317 151.816C166.672 152.457 166.307 153.329 166.303 154.239Z" fill="#85A7DF"/>
<path d="M165.752 567.949C165.752 568.628 165.953 569.291 166.33 569.856C166.707 570.421 167.242 570.861 167.869 571.121C168.496 571.381 169.186 571.45 169.852 571.318C170.518 571.186 171.13 570.86 171.611 570.38C172.091 569.901 172.419 569.289 172.552 568.624C172.685 567.958 172.618 567.268 172.359 566.64C172.1 566.013 171.66 565.476 171.096 565.098C170.532 564.721 169.869 564.518 169.19 564.517C168.739 564.517 168.292 564.605 167.875 564.777C167.458 564.949 167.079 565.201 166.76 565.52C166.44 565.839 166.187 566.217 166.014 566.634C165.841 567.051 165.752 567.498 165.752 567.949V567.949Z" fill="#85A7DF"/>
<path d="M181.594 567.969C181.593 568.649 181.793 569.313 182.169 569.879C182.545 570.445 183.081 570.886 183.708 571.147C184.336 571.408 185.026 571.477 185.693 571.346C186.359 571.214 186.972 570.888 187.453 570.408C187.934 569.928 188.262 569.317 188.395 568.65C188.529 567.984 188.461 567.293 188.202 566.666C187.942 566.038 187.503 565.501 186.938 565.123C186.373 564.745 185.709 564.543 185.03 564.543C184.579 564.542 184.133 564.629 183.716 564.801C183.299 564.973 182.92 565.225 182.601 565.543C182.282 565.862 182.029 566.24 181.856 566.656C181.683 567.072 181.594 567.519 181.594 567.969Z" fill="#85A7DF"/>
<path d="M197.431 567.99C197.43 568.669 197.631 569.333 198.007 569.898C198.383 570.463 198.919 570.904 199.546 571.165C200.172 571.426 200.862 571.495 201.529 571.364C202.195 571.232 202.807 570.906 203.288 570.427C203.769 569.948 204.097 569.337 204.23 568.671C204.364 568.005 204.297 567.315 204.039 566.687C203.78 566.06 203.341 565.523 202.777 565.145C202.213 564.766 201.55 564.564 200.871 564.562C199.961 564.562 199.088 564.923 198.443 565.565C197.798 566.208 197.434 567.08 197.431 567.99V567.99Z" fill="#85A7DF"/>
<path d="M213.273 568.009C213.272 568.688 213.472 569.351 213.848 569.916C214.225 570.481 214.76 570.921 215.386 571.182C216.013 571.443 216.703 571.512 217.369 571.38C218.034 571.249 218.646 570.923 219.127 570.444C219.608 569.965 219.936 569.354 220.069 568.689C220.203 568.024 220.136 567.334 219.878 566.706C219.619 566.079 219.181 565.542 218.617 565.164C218.054 564.785 217.391 564.583 216.712 564.581C215.802 564.582 214.93 564.943 214.285 565.586C213.641 566.228 213.277 567.099 213.273 568.009V568.009Z" fill="#85A7DF"/>
<path d="M229.116 568.035C229.115 568.714 229.316 569.378 229.693 569.943C230.07 570.508 230.606 570.948 231.233 571.209C231.86 571.469 232.55 571.537 233.216 571.405C233.882 571.273 234.494 570.947 234.975 570.467C235.455 569.987 235.783 569.376 235.915 568.71C236.048 568.044 235.981 567.353 235.721 566.726C235.462 566.098 235.022 565.562 234.458 565.185C233.893 564.807 233.23 564.605 232.551 564.605C232.1 564.605 231.653 564.693 231.237 564.865C230.82 565.037 230.441 565.29 230.122 565.609C229.803 565.927 229.55 566.305 229.378 566.722C229.205 567.138 229.116 567.585 229.116 568.035V568.035Z" fill="#85A7DF"/>
<path d="M244.955 568.052C244.954 568.731 245.154 569.394 245.531 569.959C245.907 570.524 246.442 570.965 247.069 571.226C247.696 571.487 248.386 571.556 249.052 571.424C249.718 571.292 250.33 570.966 250.811 570.487C251.291 570.008 251.619 569.397 251.752 568.731C251.886 568.065 251.818 567.375 251.559 566.748C251.3 566.12 250.861 565.583 250.297 565.206C249.733 564.828 249.07 564.626 248.391 564.625C247.481 564.624 246.608 564.985 245.964 565.627C245.32 566.27 244.957 567.142 244.955 568.052V568.052Z" fill="#85A7DF"/>
<path d="M260.793 568.073C260.791 568.752 260.991 569.417 261.366 569.982C261.742 570.548 262.277 570.989 262.904 571.251C263.531 571.512 264.221 571.582 264.887 571.451C265.553 571.32 266.166 570.995 266.647 570.516C267.129 570.037 267.457 569.426 267.591 568.76C267.725 568.095 267.659 567.404 267.401 566.776C267.142 566.148 266.703 565.611 266.14 565.232C265.576 564.854 264.913 564.651 264.234 564.65C263.783 564.648 263.336 564.735 262.919 564.906C262.502 565.078 262.122 565.33 261.803 565.648C261.483 565.966 261.229 566.344 261.056 566.76C260.883 567.176 260.793 567.622 260.793 568.073V568.073Z" fill="#85A7DF"/>
<path d="M182.146 152.245C182.145 152.924 182.345 153.588 182.721 154.153C183.098 154.718 183.633 155.159 184.26 155.419C184.887 155.68 185.577 155.749 186.243 155.618C186.909 155.487 187.521 155.161 188.002 154.682C188.483 154.202 188.811 153.591 188.945 152.926C189.078 152.26 189.011 151.57 188.753 150.942C188.494 150.314 188.055 149.777 187.491 149.399C186.928 149.021 186.264 148.818 185.585 148.817C185.134 148.815 184.687 148.903 184.27 149.074C183.853 149.246 183.473 149.498 183.154 149.816C182.834 150.135 182.581 150.513 182.408 150.93C182.235 151.347 182.146 151.793 182.146 152.245V152.245Z" fill="#85A7DF"/>
<path d="M199.571 150.85C199.571 151.529 199.772 152.192 200.148 152.757C200.525 153.322 201.061 153.762 201.688 154.023C202.315 154.283 203.005 154.352 203.671 154.22C204.337 154.088 204.949 153.762 205.43 153.283C205.91 152.804 206.238 152.193 206.372 151.527C206.505 150.861 206.439 150.171 206.18 149.543C205.922 148.916 205.483 148.379 204.919 148C204.356 147.622 203.692 147.419 203.013 147.417C202.102 147.416 201.227 147.777 200.581 148.421C199.936 149.064 199.572 149.938 199.571 150.85V150.85Z" fill="#85A7DF"/>
<path d="M216.766 148.853C216.764 149.533 216.964 150.197 217.341 150.763C217.717 151.328 218.253 151.77 218.88 152.031C219.507 152.292 220.198 152.361 220.864 152.23C221.531 152.098 222.143 151.772 222.624 151.292C223.106 150.812 223.434 150.2 223.567 149.534C223.7 148.868 223.633 148.177 223.373 147.549C223.114 146.921 222.674 146.385 222.109 146.007C221.545 145.629 220.881 145.427 220.201 145.427C219.292 145.427 218.419 145.788 217.775 146.43C217.131 147.072 216.768 147.944 216.766 148.853V148.853Z" fill="#85A7DF"/>
<path d="M235.213 148.879C235.212 149.558 235.412 150.222 235.788 150.788C236.165 151.353 236.7 151.794 237.327 152.054C237.954 152.315 238.644 152.384 239.31 152.253C239.976 152.122 240.588 151.796 241.069 151.316C241.55 150.837 241.878 150.226 242.012 149.56C242.145 148.894 242.078 148.204 241.82 147.576C241.561 146.949 241.122 146.412 240.558 146.034C239.994 145.655 239.33 145.453 238.651 145.452C237.742 145.453 236.869 145.814 236.225 146.456C235.581 147.099 235.217 147.97 235.213 148.879V148.879Z" fill="#85A7DF"/>
<path d="M252.152 148.903C252.151 149.582 252.351 150.245 252.727 150.81C253.104 151.375 253.639 151.815 254.266 152.076C254.892 152.337 255.582 152.406 256.248 152.274C256.914 152.143 257.526 151.817 258.006 151.338C258.487 150.859 258.815 150.249 258.948 149.583C259.082 148.918 259.015 148.228 258.757 147.6C258.499 146.973 258.06 146.436 257.496 146.058C256.933 145.68 256.27 145.477 255.591 145.475C255.14 145.474 254.694 145.562 254.277 145.734C253.86 145.906 253.481 146.158 253.161 146.476C252.842 146.795 252.588 147.173 252.415 147.589C252.242 148.006 252.152 148.452 252.152 148.903Z" fill="#85A7DF"/>
<path d="M268.073 150.949C268.073 151.628 268.274 152.292 268.65 152.857C269.027 153.422 269.563 153.863 270.19 154.123C270.818 154.384 271.508 154.453 272.174 154.321C272.841 154.189 273.453 153.863 273.934 153.383C274.415 152.904 274.743 152.292 274.876 151.626C275.01 150.96 274.943 150.27 274.684 149.642C274.425 149.014 273.986 148.477 273.422 148.098C272.858 147.72 272.194 147.517 271.515 147.516C271.063 147.515 270.616 147.603 270.199 147.775C269.781 147.947 269.402 148.2 269.082 148.518C268.762 148.837 268.509 149.216 268.336 149.633C268.162 150.05 268.073 150.497 268.073 150.949V150.949Z" fill="#85A7DF"/>
<path d="M284.502 152.379C284.501 153.058 284.701 153.722 285.078 154.287C285.454 154.852 285.989 155.293 286.616 155.553C287.243 155.814 287.933 155.883 288.599 155.752C289.265 155.62 289.877 155.294 290.358 154.815C290.838 154.335 291.166 153.724 291.299 153.058C291.433 152.393 291.366 151.703 291.106 151.075C290.847 150.448 290.408 149.911 289.844 149.533C289.28 149.155 288.617 148.953 287.938 148.953C287.028 148.953 286.156 149.314 285.512 149.956C284.868 150.599 284.505 151.47 284.502 152.379V152.379Z" fill="#85A7DF"/>
<path d="M183.745 314.294C183.729 325.493 187.035 336.445 193.243 345.765C199.452 355.085 208.285 362.355 218.625 366.655C228.965 370.955 240.348 372.093 251.335 369.924C262.322 367.754 272.418 362.376 280.348 354.468C288.278 346.56 293.685 336.479 295.885 325.498C298.085 314.518 296.98 303.131 292.709 292.779C288.437 282.427 281.192 273.573 271.89 267.339C262.587 261.104 251.644 257.768 240.445 257.753C225.429 257.734 211.02 263.68 200.388 274.283C189.755 284.886 183.768 299.278 183.745 314.294Z" fill="#85A7DF"/>
<path d="M198.24 314.314C198.229 322.646 200.69 330.795 205.31 337.729C209.93 344.663 216.503 350.071 224.197 353.269C231.89 356.468 240.36 357.313 248.534 355.698C256.708 354.083 264.22 350.08 270.12 344.196C276.019 338.312 280.041 330.811 281.677 322.641C283.314 314.471 282.49 305.999 279.312 298.297C276.133 290.595 270.742 284.008 263.821 279.37C256.899 274.731 248.757 272.25 240.425 272.239C234.892 272.231 229.412 273.313 224.297 275.423C219.182 277.533 214.534 280.631 210.616 284.538C206.699 288.445 203.589 293.086 201.466 298.195C199.342 303.304 198.246 308.781 198.24 314.314V314.314Z" fill="#B6DBFF"/>
<path d="M198.241 314.314C198.227 320.735 199.685 327.073 202.501 332.843C205.318 338.613 209.419 343.661 214.489 347.6C208.198 339.491 205.085 329.363 205.734 319.12C206.384 308.877 210.751 299.223 218.016 291.973C225.281 284.723 234.943 280.376 245.188 279.747C255.432 279.119 265.553 282.253 273.65 288.56C268.272 281.62 260.86 276.533 252.45 274.012C244.04 271.491 235.052 271.661 226.743 274.499C218.434 277.337 211.22 282.701 206.109 289.84C200.998 296.98 198.247 305.538 198.238 314.318L198.241 314.314Z" fill="#80ADB2"/>
<path d="M276.744 577.424C302.98 615.669 307.668 639.017 305.584 689.154C339.553 489.255 297.801 458.363 297.801 458.363C286.325 470.478 271.403 543.258 276.744 577.424Z" fill="#85A7DF"/>
<path d="M95.6397 688.87C127.076 600.355 158.41 606.464 158.41 606.464C165.599 521.544 144.462 453.769 144.462 453.769C144.462 453.769 -11.2972 528.552 95.6397 688.87Z" fill="#85A7DF"/>
<defs>
<filter id="filter0_d" x="253.38" y="441.938" width="171.323" height="265.565" filterUnits="userSpaceOnUse" color-interpolation-filters="sRGB">
<feFlood flood-opacity="0" result="BackgroundImageFix"/>
<feColorMatrix in="SourceAlpha" type="matrix" values="0 0 0 0 0 0 0 0 0 0 0 0 0 0 0 0 0 0 127 0"/>
<feOffset dx="2.00872" dy="2.00872"/>
<feGaussianBlur stdDeviation="1.00436"/>
<feColorMatrix type="matrix" values="0 0 0 0 0 0 0 0 0 0 0 0 0 0 0 0 0 0 0.251 0"/>
<feBlend mode="normal" in2="BackgroundImageFix" result="effect1_dropShadow"/>
<feBlend mode="normal" in="SourceGraphic" in2="effect1_dropShadow" result="shape"/>
</filter>
</defs>
</svg>
