<svg width="614" height="978" viewBox="0 0 614 978" fill="none" xmlns="http://www.w3.org/2000/svg">
<path d="M307.117 669.12L306.939 669.168L306.757 669.121L306.754 669.213L282.108 675.159C282.108 675.159 218.491 721.583 262.609 839.942C297.847 934.484 304.937 953.502 306.367 957.329L306.365 958.296C306.365 958.296 306.365 958.296 306.546 957.811L306.727 958.293L306.733 957.329C308.166 953.504 315.31 934.506 350.812 840.06C395.237 721.819 331.749 675.225 331.749 675.225L307.117 669.211L307.117 669.12Z" fill="#85EEA7"/>
<path d="M307.07 679.514L306.927 679.541L306.778 679.518L306.779 679.565L286.992 683.433C286.992 683.433 235.923 713.574 271.377 790.481C299.69 851.919 305.387 864.276 306.531 866.759L306.533 867.388L306.678 867.072C306.821 867.386 306.826 867.389 306.826 867.389L306.824 866.76C307.98 864.275 313.714 851.935 342.184 790.575C377.844 713.767 326.854 683.479 326.854 683.479L307.075 679.566L307.07 679.514Z" fill="white"/>
<path d="M307.029 685.727L307.022 685.701L306.915 685.714L306.8 685.697L306.8 685.729L291.38 687.689C291.38 687.689 251.611 703.059 279.256 742.32C301.332 773.677 305.777 779.985 306.671 781.253L306.667 781.576L306.782 781.414L306.891 781.571L306.895 781.26C307.795 779.983 312.253 773.691 334.417 742.395C362.173 703.204 322.436 687.73 322.436 687.73L307.029 685.727Z" fill="#85EEA7"/>
<g filter="url(#filter0_d)">
<path d="M369.917 621.014C369.917 621.014 401.539 614.937 433.002 704.291C541.277 542.897 384.402 467.064 384.402 467.064C384.402 467.064 362.897 535.354 369.917 621.014Z" fill="#6C97C1"/>
</g>
<path d="M256.183 692.31L356.621 692.447L376.599 617.651L237.397 628.249L256.183 692.31Z" fill="#6C97C1"/>
<path d="M286.765 692.354L305.295 692.378L306.088 623.018L280.054 625.003L286.765 692.354Z" fill="#DAD9F2"/>
<path d="M314.832 692.391L323.802 692.403L323.889 621.668L314.914 622.345L314.832 692.391Z" fill="#DAD9F2"/>
<path d="M236.994 621.006C235.909 620.992 234.864 621.41 234.087 622.167C233.31 622.924 232.865 623.958 232.851 625.043L232.821 645.768C232.833 646.853 233.275 647.89 234.051 648.649C234.826 649.409 235.871 649.831 236.956 649.822L377.142 650.009C377.679 650.016 378.213 649.917 378.712 649.718C379.211 649.519 379.665 649.223 380.05 648.848C380.435 648.474 380.742 648.027 380.954 647.533C381.166 647.039 381.279 646.509 381.286 645.971L381.314 625.243C381.301 624.158 380.858 623.123 380.083 622.364C379.309 621.605 378.264 621.183 377.18 621.192L236.994 621.006Z" fill="#85EEA7"/>
<path d="M229.43 636.056L385.288 636.269C385.288 636.269 494.399 311.827 306.762 19.1614C306.762 19.1614 117.634 303.456 229.43 636.056Z" fill="#85EEA7"/>
<path d="M241.261 156.866C272.807 151.286 324.246 145.511 373.557 154.633C356.425 107.121 334.021 61.6802 306.763 19.1611C306.763 19.1611 272.127 71.2281 241.261 156.866Z" fill="#6C97C1"/>
<path d="M229.43 636.056L385.288 636.269C385.288 636.269 391.113 618.938 397.755 588.693L215.349 588.451C219.386 604.191 224.08 620.059 229.43 636.056Z" fill="#6C97C1"/>
<g style="mix-blend-mode:multiply">
<path d="M324.808 636.186L385.288 636.269C385.288 636.269 491.867 319.323 313.17 29.3697C421.653 324.216 324.808 636.186 324.808 636.186Z" fill="#C0C0C0"/>
</g>
<path d="M245.303 165.239C245.301 165.919 245.5 166.584 245.876 167.15C246.252 167.716 246.787 168.158 247.414 168.42C248.041 168.681 248.732 168.751 249.399 168.621C250.065 168.49 250.678 168.165 251.16 167.685C251.642 167.206 251.971 166.595 252.105 165.929C252.239 165.263 252.173 164.572 251.915 163.944C251.657 163.315 251.218 162.778 250.654 162.399C250.09 162.02 249.426 161.817 248.747 161.815C247.836 161.814 246.963 162.174 246.317 162.816C245.672 163.458 245.307 164.329 245.303 165.239Z" fill="#6C97C1"/>
<path d="M244.752 578.949C244.752 579.628 244.953 580.291 245.33 580.856C245.707 581.421 246.242 581.861 246.869 582.121C247.496 582.381 248.186 582.45 248.852 582.318C249.518 582.186 250.13 581.86 250.611 581.38C251.091 580.901 251.419 580.289 251.552 579.624C251.685 578.958 251.618 578.268 251.359 577.64C251.099 577.013 250.66 576.476 250.096 576.098C249.532 575.721 248.869 575.518 248.19 575.517C247.739 575.517 247.292 575.605 246.875 575.777C246.458 575.949 246.079 576.201 245.76 576.52C245.44 576.839 245.187 577.217 245.014 577.634C244.841 578.051 244.752 578.498 244.752 578.949V578.949Z" fill="#6C97C1"/>
<path d="M260.594 578.969C260.593 579.649 260.793 580.313 261.169 580.879C261.545 581.445 262.081 581.886 262.708 582.147C263.336 582.408 264.026 582.477 264.693 582.346C265.359 582.214 265.972 581.888 266.453 581.408C266.934 580.928 267.262 580.317 267.395 579.651C267.529 578.984 267.461 578.294 267.202 577.666C266.942 577.038 266.503 576.501 265.938 576.123C265.373 575.745 264.709 575.543 264.03 575.543C263.579 575.542 263.132 575.629 262.716 575.801C262.299 575.973 261.92 576.225 261.601 576.543C261.282 576.862 261.029 577.24 260.856 577.656C260.683 578.072 260.594 578.519 260.594 578.969Z" fill="#6C97C1"/>
<path d="M276.431 578.99C276.43 579.669 276.631 580.333 277.007 580.898C277.383 581.463 277.919 581.904 278.546 582.165C279.172 582.426 279.862 582.495 280.529 582.364C281.195 582.232 281.807 581.907 282.288 581.427C282.769 580.948 283.097 580.337 283.23 579.671C283.364 579.006 283.297 578.315 283.039 577.688C282.78 577.06 282.341 576.523 281.777 576.145C281.213 575.767 280.55 575.564 279.871 575.563C278.961 575.562 278.088 575.923 277.443 576.565C276.798 577.208 276.434 578.08 276.431 578.99V578.99Z" fill="#6C97C1"/>
<path d="M292.273 579.009C292.272 579.688 292.472 580.351 292.848 580.916C293.225 581.481 293.76 581.922 294.386 582.182C295.013 582.443 295.703 582.512 296.369 582.381C297.034 582.249 297.646 581.923 298.127 581.444C298.608 580.965 298.936 580.355 299.069 579.689C299.203 579.024 299.136 578.334 298.878 577.706C298.619 577.079 298.181 576.542 297.617 576.164C297.054 575.786 296.391 575.583 295.712 575.581C294.802 575.583 293.93 575.944 293.285 576.586C292.641 577.228 292.277 578.099 292.273 579.009V579.009Z" fill="#6C97C1"/>
<path d="M308.116 579.036C308.115 579.715 308.316 580.378 308.693 580.943C309.07 581.508 309.606 581.949 310.233 582.209C310.86 582.469 311.55 582.538 312.216 582.405C312.882 582.273 313.494 581.947 313.975 581.467C314.455 580.987 314.783 580.376 314.915 579.71C315.048 579.044 314.981 578.354 314.721 577.726C314.462 577.099 314.022 576.562 313.458 576.185C312.893 575.807 312.23 575.605 311.551 575.605C311.1 575.605 310.653 575.693 310.237 575.865C309.82 576.038 309.441 576.29 309.122 576.609C308.803 576.927 308.55 577.306 308.378 577.722C308.205 578.138 308.116 578.585 308.116 579.036V579.036Z" fill="#6C97C1"/>
<path d="M323.955 579.052C323.954 579.731 324.154 580.394 324.531 580.959C324.907 581.524 325.442 581.965 326.069 582.226C326.696 582.487 327.386 582.556 328.052 582.424C328.718 582.292 329.33 581.966 329.811 581.487C330.291 581.008 330.619 580.397 330.752 579.731C330.886 579.065 330.818 578.375 330.559 577.748C330.3 577.12 329.861 576.583 329.297 576.206C328.733 575.828 328.07 575.626 327.391 575.625C326.481 575.624 325.608 575.985 324.964 576.627C324.32 577.27 323.957 578.142 323.955 579.052V579.052Z" fill="#6C97C1"/>
<path d="M339.793 579.073C339.791 579.752 339.991 580.417 340.366 580.982C340.742 581.548 341.277 581.989 341.904 582.251C342.531 582.512 343.221 582.582 343.887 582.451C344.553 582.321 345.166 581.995 345.647 581.516C346.129 581.037 346.457 580.426 346.591 579.76C346.725 579.095 346.659 578.404 346.401 577.776C346.142 577.148 345.703 576.611 345.14 576.233C344.576 575.854 343.913 575.651 343.234 575.65C342.783 575.648 342.336 575.735 341.919 575.906C341.502 576.078 341.122 576.33 340.803 576.648C340.483 576.966 340.229 577.344 340.056 577.76C339.883 578.176 339.793 578.623 339.793 579.073V579.073Z" fill="#6C97C1"/>
<path d="M261.146 163.245C261.145 163.924 261.345 164.588 261.721 165.153C262.098 165.718 262.633 166.159 263.26 166.42C263.887 166.681 264.577 166.75 265.243 166.618C265.909 166.487 266.521 166.161 267.002 165.682C267.483 165.203 267.811 164.592 267.945 163.926C268.078 163.26 268.011 162.57 267.753 161.942C267.494 161.315 267.055 160.778 266.491 160.399C265.928 160.021 265.264 159.819 264.585 159.817C264.134 159.816 263.687 159.903 263.27 160.074C262.853 160.246 262.473 160.498 262.154 160.817C261.834 161.135 261.581 161.514 261.408 161.93C261.235 162.347 261.146 162.794 261.146 163.245V163.245Z" fill="#6C97C1"/>
<path d="M278.571 161.85C278.571 162.529 278.772 163.193 279.148 163.757C279.525 164.322 280.061 164.763 280.688 165.023C281.315 165.283 282.005 165.352 282.671 165.22C283.337 165.089 283.949 164.763 284.43 164.283C284.91 163.804 285.238 163.193 285.372 162.527C285.505 161.862 285.439 161.171 285.18 160.544C284.922 159.916 284.483 159.379 283.919 159C283.356 158.622 282.692 158.419 282.013 158.417C281.102 158.416 280.227 158.777 279.581 159.421C278.936 160.065 278.572 160.938 278.571 161.85V161.85Z" fill="#6C97C1"/>
<path d="M295.766 159.853C295.764 160.533 295.964 161.197 296.341 161.763C296.717 162.329 297.253 162.77 297.88 163.031C298.507 163.292 299.198 163.361 299.864 163.23C300.531 163.098 301.143 162.772 301.624 162.292C302.106 161.812 302.433 161.201 302.567 160.534C302.7 159.868 302.633 159.178 302.373 158.55C302.114 157.922 301.674 157.385 301.109 157.007C300.545 156.629 299.881 156.427 299.201 156.427C298.292 156.427 297.419 156.788 296.775 157.43C296.131 158.072 295.768 158.944 295.766 159.853V159.853Z" fill="#6C97C1"/>
<path d="M314.213 159.88C314.212 160.559 314.412 161.223 314.788 161.788C315.165 162.353 315.7 162.794 316.327 163.055C316.954 163.316 317.644 163.385 318.31 163.253C318.976 163.122 319.588 162.796 320.069 162.317C320.55 161.837 320.878 161.226 321.012 160.56C321.145 159.895 321.078 159.204 320.82 158.577C320.561 157.949 320.122 157.412 319.558 157.034C318.994 156.656 318.33 156.453 317.651 156.452C316.742 156.453 315.869 156.814 315.225 157.457C314.581 158.099 314.217 158.97 314.213 159.88V159.88Z" fill="#6C97C1"/>
<path d="M331.152 159.903C331.151 160.582 331.351 161.246 331.727 161.81C332.104 162.375 332.639 162.816 333.266 163.076C333.892 163.337 334.582 163.406 335.248 163.275C335.914 163.143 336.526 162.818 337.006 162.339C337.487 161.86 337.815 161.249 337.948 160.583C338.082 159.918 338.015 159.228 337.757 158.601C337.499 157.973 337.06 157.436 336.496 157.058C335.933 156.68 335.27 156.477 334.591 156.476C334.14 156.475 333.694 156.562 333.277 156.734C332.86 156.906 332.481 157.158 332.161 157.477C331.842 157.795 331.588 158.173 331.415 158.589C331.242 159.006 331.152 159.452 331.152 159.903Z" fill="#6C97C1"/>
<path d="M347.073 161.949C347.073 162.628 347.274 163.292 347.65 163.857C348.027 164.422 348.563 164.863 349.19 165.123C349.818 165.384 350.508 165.453 351.174 165.321C351.841 165.189 352.453 164.863 352.934 164.383C353.415 163.904 353.743 163.292 353.876 162.626C354.01 161.96 353.943 161.27 353.684 160.642C353.425 160.014 352.986 159.477 352.422 159.098C351.858 158.72 351.194 158.517 350.515 158.516C350.063 158.515 349.616 158.603 349.199 158.775C348.781 158.947 348.402 159.2 348.082 159.518C347.762 159.837 347.509 160.216 347.336 160.633C347.162 161.05 347.073 161.497 347.073 161.949V161.949Z" fill="#6C97C1"/>
<path d="M363.502 163.379C363.501 164.058 363.701 164.722 364.078 165.287C364.454 165.852 364.989 166.293 365.616 166.554C366.243 166.814 366.933 166.883 367.599 166.752C368.265 166.62 368.877 166.294 369.358 165.815C369.838 165.335 370.166 164.724 370.299 164.059C370.433 163.393 370.366 162.703 370.106 162.075C369.847 161.448 369.408 160.911 368.844 160.533C368.28 160.156 367.617 159.954 366.938 159.953C366.028 159.953 365.156 160.314 364.512 160.957C363.868 161.599 363.505 162.47 363.502 163.379V163.379Z" fill="#6C97C1"/>
<path d="M262.745 325.294C262.729 336.492 266.035 347.445 272.243 356.765C278.452 366.085 287.284 373.355 297.625 377.655C307.965 381.955 319.348 383.093 330.335 380.923C341.322 378.754 351.418 373.376 359.348 365.468C367.278 357.56 372.685 347.479 374.885 336.498C377.085 325.518 375.98 314.131 371.709 303.779C367.437 293.427 360.192 284.573 350.89 278.339C341.587 272.104 330.644 268.768 319.445 268.753C304.429 268.734 290.02 274.679 279.387 285.282C268.755 295.886 262.768 310.278 262.745 325.294Z" fill="#6C97C1"/>
<path d="M277.24 325.314C277.229 333.646 279.689 341.795 284.31 348.728C288.93 355.662 295.503 361.07 303.197 364.269C310.89 367.467 319.36 368.313 327.534 366.698C335.708 365.083 343.22 361.08 349.12 355.196C355.019 349.312 359.041 341.811 360.677 333.641C362.314 325.471 361.49 316.999 358.312 309.297C355.133 301.595 349.742 295.008 342.82 290.37C335.899 285.731 327.757 283.25 319.425 283.239C313.892 283.231 308.412 284.313 303.297 286.423C298.182 288.533 293.534 291.631 289.616 295.538C285.699 299.445 282.589 304.086 280.466 309.195C278.342 314.304 277.246 319.781 277.24 325.314V325.314Z" fill="#B6DBFF"/>
<path d="M277.241 325.314C277.227 331.735 278.685 338.073 281.501 343.843C284.318 349.613 288.418 354.661 293.489 358.6C287.198 350.49 284.085 340.363 284.734 330.12C285.384 319.877 289.751 310.223 297.016 302.973C304.281 295.723 313.943 291.375 324.188 290.747C334.432 290.118 344.553 293.252 352.65 299.56C347.272 292.619 339.86 287.533 331.45 285.012C323.039 282.491 314.052 282.661 305.743 285.499C297.434 288.337 290.22 293.701 285.109 300.84C279.998 307.98 277.247 316.538 277.238 325.318L277.241 325.314Z" fill="#80ADB2"/>
<path d="M355.744 588.424C381.98 626.669 386.668 650.017 384.584 700.154C418.553 500.255 376.801 469.363 376.801 469.363C365.325 481.478 350.403 554.258 355.744 588.424Z" fill="#6C97C1"/>
<path d="M174.64 699.87C206.076 611.355 237.41 617.464 237.41 617.464C244.599 532.544 223.462 464.769 223.462 464.769C223.462 464.769 67.7027 539.552 174.64 699.87Z" fill="#6C97C1"/>
<defs>
<filter id="filter0_d" x="332.38" y="452.938" width="171.323" height="265.565" filterUnits="userSpaceOnUse" color-interpolation-filters="sRGB">
<feFlood flood-opacity="0" result="BackgroundImageFix"/>
<feColorMatrix in="SourceAlpha" type="matrix" values="0 0 0 0 0 0 0 0 0 0 0 0 0 0 0 0 0 0 127 0"/>
<feOffset dx="2.00872" dy="2.00872"/>
<feGaussianBlur stdDeviation="1.00436"/>
<feColorMatrix type="matrix" values="0 0 0 0 0 0 0 0 0 0 0 0 0 0 0 0 0 0 0.251 0"/>
<feBlend mode="normal" in2="BackgroundImageFix" result="effect1_dropShadow"/>
<feBlend mode="normal" in="SourceGraphic" in2="effect1_dropShadow" result="shape"/>
</filter>
</defs>
</svg>
